<svg xmlns="http://www.w3.org/2000/svg" width="100%" height="100%">
  <defs>
    <pattern id="herringbone" width="576" height="576" patternUnits="userSpaceOnUse" patternTransform="rotate(45)">
      <g stroke="#22341F" stroke-width="1">
      <rect x="0" y="492" width="12" height="48" fill="#2B4128"/>
      <rect x="-36" y="540" width="48" height="12" fill="#2F462C"/>
      <rect x="12" y="504" width="12" height="48" fill="#2F462C"/>
      <rect x="-24" y="552" width="48" height="12" fill="#2B4128"/>
      <rect x="24" y="516" width="12" height="48" fill="#263A25"/>
      <rect x="-12" y="564" width="48" height="12" fill="#2F462C"/>
      <rect x="36" y="528" width="12" height="48" fill="#2F462C"/>
      <rect x="48" y="540" width="12" height="48" fill="#2B4128"/>
      <rect x="60" y="552" width="12" height="48" fill="#2F462C"/>
      <rect x="72" y="564" width="12" height="48" fill="#2B4128"/>
      <rect x="0" y="396" width="12" height="48" fill="#2B4128"/>
      <rect x="-36" y="444" width="48" height="12" fill="#2F462C"/>
      <rect x="12" y="408" width="12" height="48" fill="#263A25"/>
      <rect x="-24" y="456" width="48" height="12" fill="#34482A"/>
      <rect x="24" y="420" width="12" height="48" fill="#2B4128"/>
      <rect x="-12" y="468" width="48" height="12" fill="#2F462C"/>
      <rect x="36" y="432" width="12" height="48" fill="#34482A"/>
      <rect x="0" y="480" width="48" height="12" fill="#2B4128"/>
      <rect x="48" y="444" width="12" height="48" fill="#2B4128"/>
      <rect x="12" y="492" width="48" height="12" fill="#2F462C"/>
      <rect x="60" y="456" width="12" height="48" fill="#34482A"/>
      <rect x="24" y="504" width="48" height="12" fill="#2B4128"/>
      <rect x="72" y="468" width="12" height="48" fill="#2B4128"/>
      <rect x="36" y="516" width="48" height="12" fill="#34482A"/>
      <rect x="84" y="480" width="12" height="48" fill="#34482A"/>
      <rect x="48" y="528" width="48" height="12" fill="#2B4128"/>
      <rect x="96" y="492" width="12" height="48" fill="#263A25"/>
      <rect x="60" y="540" width="48" height="12" fill="#2F462C"/>
      <rect x="108" y="504" width="12" height="48" fill="#2F462C"/>
      <rect x="72" y="552" width="48" height="12" fill="#2B4128"/>
      <rect x="120" y="516" width="12" height="48" fill="#2B4128"/>
      <rect x="84" y="564" width="48" height="12" fill="#2F462C"/>
      <rect x="132" y="528" width="12" height="48" fill="#2F462C"/>
      <rect x="144" y="540" width="12" height="48" fill="#2B4128"/>
      <rect x="156" y="552" width="12" height="48" fill="#34482A"/>
      <rect x="168" y="564" width="12" height="48" fill="#2B4128"/>
      <rect x="0" y="300" width="12" height="48" fill="#2B4128"/>
      <rect x="-36" y="348" width="48" height="12" fill="#2F462C"/>
      <rect x="12" y="312" width="12" height="48" fill="#2F462C"/>
      <rect x="-24" y="360" width="48" height="12" fill="#2B4128"/>
      <rect x="24" y="324" width="12" height="48" fill="#263A25"/>
      <rect x="-12" y="372" width="48" height="12" fill="#2F462C"/>
      <rect x="36" y="336" width="12" height="48" fill="#2F462C"/>
      <rect x="0" y="384" width="48" height="12" fill="#263A25"/>
      <rect x="48" y="348" width="12" height="48" fill="#2B4128"/>
      <rect x="12" y="396" width="48" height="12" fill="#2F462C"/>
      <rect x="60" y="360" width="12" height="48" fill="#34482A"/>
      <rect x="24" y="408" width="48" height="12" fill="#2B4128"/>
      <rect x="72" y="372" width="12" height="48" fill="#2B4128"/>
      <rect x="36" y="420" width="48" height="12" fill="#2F462C"/>
      <rect x="84" y="384" width="12" height="48" fill="#2F462C"/>
      <rect x="48" y="432" width="48" height="12" fill="#263A25"/>
      <rect x="96" y="396" width="12" height="48" fill="#2B4128"/>
      <rect x="60" y="444" width="48" height="12" fill="#34482A"/>
      <rect x="108" y="408" width="12" height="48" fill="#2F462C"/>
      <rect x="72" y="456" width="48" height="12" fill="#2B4128"/>
      <rect x="120" y="420" width="12" height="48" fill="#2B4128"/>
      <rect x="84" y="468" width="48" height="12" fill="#2F462C"/>
      <rect x="132" y="432" width="12" height="48" fill="#2F462C"/>
      <rect x="96" y="480" width="48" height="12" fill="#34482A"/>
      <rect x="144" y="444" width="12" height="48" fill="#2B4128"/>
      <rect x="108" y="492" width="48" height="12" fill="#2F462C"/>
      <rect x="156" y="456" width="12" height="48" fill="#2F462C"/>
      <rect x="120" y="504" width="48" height="12" fill="#2B4128"/>
      <rect x="168" y="468" width="12" height="48" fill="#2B4128"/>
      <rect x="132" y="516" width="48" height="12" fill="#2F462C"/>
      <rect x="180" y="480" width="12" height="48" fill="#34482A"/>
      <rect x="144" y="528" width="48" height="12" fill="#34482A"/>
      <rect x="192" y="492" width="12" height="48" fill="#263A25"/>
      <rect x="156" y="540" width="48" height="12" fill="#2F462C"/>
      <rect x="204" y="504" width="12" height="48" fill="#2F462C"/>
      <rect x="168" y="552" width="48" height="12" fill="#34482A"/>
      <rect x="216" y="516" width="12" height="48" fill="#2B4128"/>
      <rect x="180" y="564" width="48" height="12" fill="#2F462C"/>
      <rect x="228" y="528" width="12" height="48" fill="#2F462C"/>
      <rect x="240" y="540" width="12" height="48" fill="#2B4128"/>
      <rect x="252" y="552" width="12" height="48" fill="#2F462C"/>
      <rect x="264" y="564" width="12" height="48" fill="#2B4128"/>
      <rect x="0" y="204" width="12" height="48" fill="#2B4128"/>
      <rect x="-36" y="252" width="48" height="12" fill="#2F462C"/>
      <rect x="12" y="216" width="12" height="48" fill="#263A25"/>
      <rect x="-24" y="264" width="48" height="12" fill="#2B4128"/>
      <rect x="24" y="228" width="12" height="48" fill="#2B4128"/>
      <rect x="-12" y="276" width="48" height="12" fill="#34482A"/>
      <rect x="36" y="240" width="12" height="48" fill="#263A25"/>
      <rect x="0" y="288" width="48" height="12" fill="#2B4128"/>
      <rect x="48" y="252" width="12" height="48" fill="#2B4128"/>
      <rect x="12" y="300" width="48" height="12" fill="#2F462C"/>
      <rect x="60" y="264" width="12" height="48" fill="#2F462C"/>
      <rect x="24" y="312" width="48" height="12" fill="#2B4128"/>
      <rect x="72" y="276" width="12" height="48" fill="#34482A"/>
      <rect x="36" y="324" width="48" height="12" fill="#2F462C"/>
      <rect x="84" y="288" width="12" height="48" fill="#2F462C"/>
      <rect x="48" y="336" width="48" height="12" fill="#2B4128"/>
      <rect x="96" y="300" width="12" height="48" fill="#2B4128"/>
      <rect x="60" y="348" width="48" height="12" fill="#2F462C"/>
      <rect x="108" y="312" width="12" height="48" fill="#2F462C"/>
      <rect x="72" y="360" width="48" height="12" fill="#2B4128"/>
      <rect x="120" y="324" width="12" height="48" fill="#263A25"/>
      <rect x="84" y="372" width="48" height="12" fill="#263A25"/>
      <rect x="132" y="336" width="12" height="48" fill="#34482A"/>
      <rect x="96" y="384" width="48" height="12" fill="#2B4128"/>
      <rect x="144" y="348" width="12" height="48" fill="#2B4128"/>
      <rect x="108" y="396" width="48" height="12" fill="#2F462C"/>
      <rect x="156" y="360" width="12" height="48" fill="#2F462C"/>
      <rect x="120" y="408" width="48" height="12" fill="#2B4128"/>
      <rect x="168" y="372" width="12" height="48" fill="#2B4128"/>
      <rect x="132" y="420" width="48" height="12" fill="#2F462C"/>
      <rect x="180" y="384" width="12" height="48" fill="#2F462C"/>
      <rect x="144" y="432" width="48" height="12" fill="#2B4128"/>
      <rect x="192" y="396" width="12" height="48" fill="#34482A"/>
      <rect x="156" y="444" width="48" height="12" fill="#2F462C"/>
      <rect x="204" y="408" width="12" height="48" fill="#2F462C"/>
      <rect x="168" y="456" width="48" height="12" fill="#2B4128"/>
      <rect x="216" y="420" width="12" height="48" fill="#2B4128"/>
      <rect x="180" y="468" width="48" height="12" fill="#2F462C"/>
      <rect x="228" y="432" width="12" height="48" fill="#2F462C"/>
      <rect x="192" y="480" width="48" height="12" fill="#2B4128"/>
      <rect x="240" y="444" width="12" height="48" fill="#2B4128"/>
      <rect x="204" y="492" width="48" height="12" fill="#2F462C"/>
      <rect x="252" y="456" width="12" height="48" fill="#2F462C"/>
      <rect x="216" y="504" width="48" height="12" fill="#34482A"/>
      <rect x="264" y="468" width="12" height="48" fill="#263A25"/>
      <rect x="228" y="516" width="48" height="12" fill="#2F462C"/>
      <rect x="276" y="480" width="12" height="48" fill="#263A25"/>
      <rect x="240" y="528" width="48" height="12" fill="#2B4128"/>
      <rect x="288" y="492" width="12" height="48" fill="#34482A"/>
      <rect x="252" y="540" width="48" height="12" fill="#2F462C"/>
      <rect x="300" y="504" width="12" height="48" fill="#2F462C"/>
      <rect x="264" y="552" width="48" height="12" fill="#2B4128"/>
      <rect x="312" y="516" width="12" height="48" fill="#2B4128"/>
      <rect x="276" y="564" width="48" height="12" fill="#2F462C"/>
      <rect x="324" y="528" width="12" height="48" fill="#2F462C"/>
      <rect x="336" y="540" width="12" height="48" fill="#2B4128"/>
      <rect x="348" y="552" width="12" height="48" fill="#2F462C"/>
      <rect x="360" y="564" width="12" height="48" fill="#2B4128"/>
      <rect x="0" y="108" width="12" height="48" fill="#2B4128"/>
      <rect x="-36" y="156" width="48" height="12" fill="#34482A"/>
      <rect x="12" y="120" width="12" height="48" fill="#2F462C"/>
      <rect x="-24" y="168" width="48" height="12" fill="#34482A"/>
      <rect x="24" y="132" width="12" height="48" fill="#2B4128"/>
      <rect x="-12" y="180" width="48" height="12" fill="#2F462C"/>
      <rect x="36" y="144" width="12" height="48" fill="#34482A"/>
      <rect x="0" y="192" width="48" height="12" fill="#2B4128"/>
      <rect x="48" y="156" width="12" height="48" fill="#2B4128"/>
      <rect x="12" y="204" width="48" height="12" fill="#2F462C"/>
      <rect x="60" y="168" width="12" height="48" fill="#263A25"/>
      <rect x="24" y="216" width="48" height="12" fill="#2B4128"/>
      <rect x="72" y="180" width="12" height="48" fill="#2B4128"/>
      <rect x="36" y="228" width="48" height="12" fill="#2F462C"/>
      <rect x="84" y="192" width="12" height="48" fill="#2F462C"/>
      <rect x="48" y="240" width="48" height="12" fill="#2B4128"/>
      <rect x="96" y="204" width="12" height="48" fill="#2B4128"/>
      <rect x="60" y="252" width="48" height="12" fill="#2F462C"/>
      <rect x="108" y="216" width="12" height="48" fill="#2F462C"/>
      <rect x="72" y="264" width="48" height="12" fill="#2B4128"/>
      <rect x="120" y="228" width="12" height="48" fill="#2B4128"/>
      <rect x="84" y="276" width="48" height="12" fill="#2F462C"/>
      <rect x="132" y="240" width="12" height="48" fill="#34482A"/>
      <rect x="96" y="288" width="48" height="12" fill="#2B4128"/>
      <rect x="144" y="252" width="12" height="48" fill="#2B4128"/>
      <rect x="108" y="300" width="48" height="12" fill="#2F462C"/>
      <rect x="156" y="264" width="12" height="48" fill="#2F462C"/>
      <rect x="120" y="312" width="48" height="12" fill="#2B4128"/>
      <rect x="168" y="276" width="12" height="48" fill="#2B4128"/>
      <rect x="132" y="324" width="48" height="12" fill="#2F462C"/>
      <rect x="180" y="288" width="12" height="48" fill="#2F462C"/>
      <rect x="144" y="336" width="48" height="12" fill="#2B4128"/>
      <rect x="192" y="300" width="12" height="48" fill="#2B4128"/>
      <rect x="156" y="348" width="48" height="12" fill="#2F462C"/>
      <rect x="204" y="312" width="12" height="48" fill="#2F462C"/>
      <rect x="168" y="360" width="48" height="12" fill="#2B4128"/>
      <rect x="216" y="324" width="12" height="48" fill="#2B4128"/>
      <rect x="180" y="372" width="48" height="12" fill="#2F462C"/>
      <rect x="228" y="336" width="12" height="48" fill="#2F462C"/>
      <rect x="192" y="384" width="48" height="12" fill="#263A25"/>
      <rect x="240" y="348" width="12" height="48" fill="#2B4128"/>
      <rect x="204" y="396" width="48" height="12" fill="#2F462C"/>
      <rect x="252" y="360" width="12" height="48" fill="#2F462C"/>
      <rect x="216" y="408" width="48" height="12" fill="#2B4128"/>
      <rect x="264" y="372" width="12" height="48" fill="#2B4128"/>
      <rect x="228" y="420" width="48" height="12" fill="#2F462C"/>
      <rect x="276" y="384" width="12" height="48" fill="#2F462C"/>
      <rect x="240" y="432" width="48" height="12" fill="#34482A"/>
      <rect x="288" y="396" width="12" height="48" fill="#2B4128"/>
      <rect x="252" y="444" width="48" height="12" fill="#2F462C"/>
      <rect x="300" y="408" width="12" height="48" fill="#2F462C"/>
      <rect x="264" y="456" width="48" height="12" fill="#2B4128"/>
      <rect x="312" y="420" width="12" height="48" fill="#2B4128"/>
      <rect x="276" y="468" width="48" height="12" fill="#2F462C"/>
      <rect x="324" y="432" width="12" height="48" fill="#2F462C"/>
      <rect x="288" y="480" width="48" height="12" fill="#263A25"/>
      <rect x="336" y="444" width="12" height="48" fill="#2B4128"/>
      <rect x="300" y="492" width="48" height="12" fill="#2F462C"/>
      <rect x="348" y="456" width="12" height="48" fill="#2F462C"/>
      <rect x="312" y="504" width="48" height="12" fill="#2B4128"/>
      <rect x="360" y="468" width="12" height="48" fill="#2B4128"/>
      <rect x="324" y="516" width="48" height="12" fill="#34482A"/>
      <rect x="372" y="480" width="12" height="48" fill="#2F462C"/>
      <rect x="336" y="528" width="48" height="12" fill="#2B4128"/>
      <rect x="384" y="492" width="12" height="48" fill="#2B4128"/>
      <rect x="348" y="540" width="48" height="12" fill="#2F462C"/>
      <rect x="396" y="504" width="12" height="48" fill="#263A25"/>
      <rect x="360" y="552" width="48" height="12" fill="#2B4128"/>
      <rect x="408" y="516" width="12" height="48" fill="#2B4128"/>
      <rect x="372" y="564" width="48" height="12" fill="#2F462C"/>
      <rect x="420" y="528" width="12" height="48" fill="#2F462C"/>
      <rect x="432" y="540" width="12" height="48" fill="#263A25"/>
      <rect x="444" y="552" width="12" height="48" fill="#2F462C"/>
      <rect x="456" y="564" width="12" height="48" fill="#2B4128"/>
      <rect x="0" y="12" width="12" height="48" fill="#2B4128"/>
      <rect x="-36" y="60" width="48" height="12" fill="#2F462C"/>
      <rect x="12" y="24" width="12" height="48" fill="#2F462C"/>
      <rect x="-24" y="72" width="48" height="12" fill="#2B4128"/>
      <rect x="24" y="36" width="12" height="48" fill="#2B4128"/>
      <rect x="-12" y="84" width="48" height="12" fill="#2F462C"/>
      <rect x="36" y="48" width="12" height="48" fill="#2F462C"/>
      <rect x="0" y="96" width="48" height="12" fill="#2B4128"/>
      <rect x="48" y="60" width="12" height="48" fill="#263A25"/>
      <rect x="12" y="108" width="48" height="12" fill="#2F462C"/>
      <rect x="60" y="72" width="12" height="48" fill="#2F462C"/>
      <rect x="24" y="120" width="48" height="12" fill="#2B4128"/>
      <rect x="72" y="84" width="12" height="48" fill="#2B4128"/>
      <rect x="36" y="132" width="48" height="12" fill="#2F462C"/>
      <rect x="84" y="96" width="12" height="48" fill="#2F462C"/>
      <rect x="48" y="144" width="48" height="12" fill="#2B4128"/>
      <rect x="96" y="108" width="12" height="48" fill="#2B4128"/>
      <rect x="60" y="156" width="48" height="12" fill="#2F462C"/>
      <rect x="108" y="120" width="12" height="48" fill="#34482A"/>
      <rect x="72" y="168" width="48" height="12" fill="#2B4128"/>
      <rect x="120" y="132" width="12" height="48" fill="#2B4128"/>
      <rect x="84" y="180" width="48" height="12" fill="#2F462C"/>
      <rect x="132" y="144" width="12" height="48" fill="#2F462C"/>
      <rect x="96" y="192" width="48" height="12" fill="#34482A"/>
      <rect x="144" y="156" width="12" height="48" fill="#2B4128"/>
      <rect x="108" y="204" width="48" height="12" fill="#2F462C"/>
      <rect x="156" y="168" width="12" height="48" fill="#2F462C"/>
      <rect x="120" y="216" width="48" height="12" fill="#2B4128"/>
      <rect x="168" y="180" width="12" height="48" fill="#2B4128"/>
      <rect x="132" y="228" width="48" height="12" fill="#2F462C"/>
      <rect x="180" y="192" width="12" height="48" fill="#2F462C"/>
      <rect x="144" y="240" width="48" height="12" fill="#2B4128"/>
      <rect x="192" y="204" width="12" height="48" fill="#2B4128"/>
      <rect x="156" y="252" width="48" height="12" fill="#2F462C"/>
      <rect x="204" y="216" width="12" height="48" fill="#2F462C"/>
      <rect x="168" y="264" width="48" height="12" fill="#34482A"/>
      <rect x="216" y="228" width="12" height="48" fill="#2B4128"/>
      <rect x="180" y="276" width="48" height="12" fill="#2F462C"/>
      <rect x="228" y="240" width="12" height="48" fill="#2F462C"/>
      <rect x="192" y="288" width="48" height="12" fill="#2B4128"/>
      <rect x="240" y="252" width="12" height="48" fill="#263A25"/>
      <rect x="204" y="300" width="48" height="12" fill="#2F462C"/>
      <rect x="252" y="264" width="12" height="48" fill="#2F462C"/>
      <rect x="216" y="312" width="48" height="12" fill="#2B4128"/>
      <rect x="264" y="276" width="12" height="48" fill="#2B4128"/>
      <rect x="228" y="324" width="48" height="12" fill="#2F462C"/>
      <rect x="276" y="288" width="12" height="48" fill="#263A25"/>
      <rect x="240" y="336" width="48" height="12" fill="#34482A"/>
      <rect x="288" y="300" width="12" height="48" fill="#2B4128"/>
      <rect x="252" y="348" width="48" height="12" fill="#2F462C"/>
      <rect x="300" y="312" width="12" height="48" fill="#2F462C"/>
      <rect x="264" y="360" width="48" height="12" fill="#2B4128"/>
      <rect x="312" y="324" width="12" height="48" fill="#2B4128"/>
      <rect x="276" y="372" width="48" height="12" fill="#2F462C"/>
      <rect x="324" y="336" width="12" height="48" fill="#2F462C"/>
      <rect x="288" y="384" width="48" height="12" fill="#2B4128"/>
      <rect x="336" y="348" width="12" height="48" fill="#2B4128"/>
      <rect x="300" y="396" width="48" height="12" fill="#263A25"/>
      <rect x="348" y="360" width="12" height="48" fill="#2F462C"/>
      <rect x="312" y="408" width="48" height="12" fill="#34482A"/>
      <rect x="360" y="372" width="12" height="48" fill="#2B4128"/>
      <rect x="324" y="420" width="48" height="12" fill="#2F462C"/>
      <rect x="372" y="384" width="12" height="48" fill="#2F462C"/>
      <rect x="336" y="432" width="48" height="12" fill="#2B4128"/>
      <rect x="384" y="396" width="12" height="48" fill="#2B4128"/>
      <rect x="348" y="444" width="48" height="12" fill="#2F462C"/>
      <rect x="396" y="408" width="12" height="48" fill="#2F462C"/>
      <rect x="360" y="456" width="48" height="12" fill="#2B4128"/>
      <rect x="408" y="420" width="12" height="48" fill="#263A25"/>
      <rect x="372" y="468" width="48" height="12" fill="#263A25"/>
      <rect x="420" y="432" width="12" height="48" fill="#34482A"/>
      <rect x="384" y="480" width="48" height="12" fill="#2B4128"/>
      <rect x="432" y="444" width="12" height="48" fill="#2B4128"/>
      <rect x="396" y="492" width="48" height="12" fill="#2F462C"/>
      <rect x="444" y="456" width="12" height="48" fill="#263A25"/>
      <rect x="408" y="504" width="48" height="12" fill="#34482A"/>
      <rect x="456" y="468" width="12" height="48" fill="#2B4128"/>
      <rect x="420" y="516" width="48" height="12" fill="#2F462C"/>
      <rect x="468" y="480" width="12" height="48" fill="#2F462C"/>
      <rect x="432" y="528" width="48" height="12" fill="#2B4128"/>
      <rect x="480" y="492" width="12" height="48" fill="#2B4128"/>
      <rect x="444" y="540" width="48" height="12" fill="#263A25"/>
      <rect x="492" y="504" width="12" height="48" fill="#2F462C"/>
      <rect x="456" y="552" width="48" height="12" fill="#2B4128"/>
      <rect x="504" y="516" width="12" height="48" fill="#2B4128"/>
      <rect x="468" y="564" width="48" height="12" fill="#2F462C"/>
      <rect x="516" y="528" width="12" height="48" fill="#2F462C"/>
      <rect x="528" y="540" width="12" height="48" fill="#263A25"/>
      <rect x="540" y="552" width="12" height="48" fill="#2F462C"/>
      <rect x="552" y="564" width="12" height="48" fill="#34482A"/>
      <rect x="0" y="0" width="48" height="12" fill="#2B4128"/>
      <rect x="48" y="-36" width="12" height="48" fill="#2B4128"/>
      <rect x="12" y="12" width="48" height="12" fill="#2F462C"/>
      <rect x="60" y="-24" width="12" height="48" fill="#2F462C"/>
      <rect x="24" y="24" width="48" height="12" fill="#2B4128"/>
      <rect x="72" y="-12" width="12" height="48" fill="#2B4128"/>
      <rect x="36" y="36" width="48" height="12" fill="#2F462C"/>
      <rect x="84" y="0" width="12" height="48" fill="#2F462C"/>
      <rect x="48" y="48" width="48" height="12" fill="#2B4128"/>
      <rect x="96" y="12" width="12" height="48" fill="#2B4128"/>
      <rect x="60" y="60" width="48" height="12" fill="#2F462C"/>
      <rect x="108" y="24" width="12" height="48" fill="#34482A"/>
      <rect x="72" y="72" width="48" height="12" fill="#2B4128"/>
      <rect x="120" y="36" width="12" height="48" fill="#2B4128"/>
      <rect x="84" y="84" width="48" height="12" fill="#2F462C"/>
      <rect x="132" y="48" width="12" height="48" fill="#2F462C"/>
      <rect x="96" y="96" width="48" height="12" fill="#2B4128"/>
      <rect x="144" y="60" width="12" height="48" fill="#2B4128"/>
      <rect x="108" y="108" width="48" height="12" fill="#2F462C"/>
      <rect x="156" y="72" width="12" height="48" fill="#263A25"/>
      <rect x="120" y="120" width="48" height="12" fill="#34482A"/>
      <rect x="168" y="84" width="12" height="48" fill="#2B4128"/>
      <rect x="132" y="132" width="48" height="12" fill="#34482A"/>
      <rect x="180" y="96" width="12" height="48" fill="#2F462C"/>
      <rect x="144" y="144" width="48" height="12" fill="#2B4128"/>
      <rect x="192" y="108" width="12" height="48" fill="#2B4128"/>
      <rect x="156" y="156" width="48" height="12" fill="#2F462C"/>
      <rect x="204" y="120" width="12" height="48" fill="#2F462C"/>
      <rect x="168" y="168" width="48" height="12" fill="#2B4128"/>
      <rect x="216" y="132" width="12" height="48" fill="#2B4128"/>
      <rect x="180" y="180" width="48" height="12" fill="#2F462C"/>
      <rect x="228" y="144" width="12" height="48" fill="#263A25"/>
      <rect x="192" y="192" width="48" height="12" fill="#34482A"/>
      <rect x="240" y="156" width="12" height="48" fill="#2B4128"/>
      <rect x="204" y="204" width="48" height="12" fill="#2F462C"/>
      <rect x="252" y="168" width="12" height="48" fill="#2F462C"/>
      <rect x="216" y="216" width="48" height="12" fill="#263A25"/>
      <rect x="264" y="180" width="12" height="48" fill="#2B4128"/>
      <rect x="228" y="228" width="48" height="12" fill="#2F462C"/>
      <rect x="276" y="192" width="12" height="48" fill="#2F462C"/>
      <rect x="240" y="240" width="48" height="12" fill="#2B4128"/>
      <rect x="288" y="204" width="12" height="48" fill="#2B4128"/>
      <rect x="252" y="252" width="48" height="12" fill="#2F462C"/>
      <rect x="300" y="216" width="12" height="48" fill="#2F462C"/>
      <rect x="264" y="264" width="48" height="12" fill="#2B4128"/>
      <rect x="312" y="228" width="12" height="48" fill="#2B4128"/>
      <rect x="276" y="276" width="48" height="12" fill="#2F462C"/>
      <rect x="324" y="240" width="12" height="48" fill="#2F462C"/>
      <rect x="288" y="288" width="48" height="12" fill="#34482A"/>
      <rect x="336" y="252" width="12" height="48" fill="#2B4128"/>
      <rect x="300" y="300" width="48" height="12" fill="#2F462C"/>
      <rect x="348" y="264" width="12" height="48" fill="#34482A"/>
      <rect x="312" y="312" width="48" height="12" fill="#2B4128"/>
      <rect x="360" y="276" width="12" height="48" fill="#2B4128"/>
      <rect x="324" y="324" width="48" height="12" fill="#34482A"/>
      <rect x="372" y="288" width="12" height="48" fill="#2F462C"/>
      <rect x="336" y="336" width="48" height="12" fill="#2B4128"/>
      <rect x="384" y="300" width="12" height="48" fill="#2B4128"/>
      <rect x="348" y="348" width="48" height="12" fill="#2F462C"/>
      <rect x="396" y="312" width="12" height="48" fill="#2F462C"/>
      <rect x="360" y="360" width="48" height="12" fill="#263A25"/>
      <rect x="408" y="324" width="12" height="48" fill="#263A25"/>
      <rect x="372" y="372" width="48" height="12" fill="#2F462C"/>
      <rect x="420" y="336" width="12" height="48" fill="#2F462C"/>
      <rect x="384" y="384" width="48" height="12" fill="#2B4128"/>
      <rect x="432" y="348" width="12" height="48" fill="#2B4128"/>
      <rect x="396" y="396" width="48" height="12" fill="#2F462C"/>
      <rect x="444" y="360" width="12" height="48" fill="#34482A"/>
      <rect x="408" y="408" width="48" height="12" fill="#2B4128"/>
      <rect x="456" y="372" width="12" height="48" fill="#2B4128"/>
      <rect x="420" y="420" width="48" height="12" fill="#2F462C"/>
      <rect x="468" y="384" width="12" height="48" fill="#2F462C"/>
      <rect x="432" y="432" width="48" height="12" fill="#2B4128"/>
      <rect x="480" y="396" width="12" height="48" fill="#2B4128"/>
      <rect x="444" y="444" width="48" height="12" fill="#2F462C"/>
      <rect x="492" y="408" width="12" height="48" fill="#263A25"/>
      <rect x="456" y="456" width="48" height="12" fill="#2B4128"/>
      <rect x="504" y="420" width="12" height="48" fill="#34482A"/>
      <rect x="468" y="468" width="48" height="12" fill="#2F462C"/>
      <rect x="516" y="432" width="12" height="48" fill="#2F462C"/>
      <rect x="480" y="480" width="48" height="12" fill="#2B4128"/>
      <rect x="528" y="444" width="12" height="48" fill="#2B4128"/>
      <rect x="492" y="492" width="48" height="12" fill="#2F462C"/>
      <rect x="540" y="456" width="12" height="48" fill="#263A25"/>
      <rect x="504" y="504" width="48" height="12" fill="#2B4128"/>
      <rect x="552" y="468" width="12" height="48" fill="#2B4128"/>
      <rect x="516" y="516" width="48" height="12" fill="#2F462C"/>
      <rect x="564" y="480" width="12" height="48" fill="#2F462C"/>
      <rect x="528" y="528" width="48" height="12" fill="#2B4128"/>
      <rect x="540" y="540" width="48" height="12" fill="#2F462C"/>
      <rect x="552" y="552" width="48" height="12" fill="#2B4128"/>
      <rect x="564" y="564" width="48" height="12" fill="#2F462C"/>
      <rect x="96" y="0" width="48" height="12" fill="#2B4128"/>
      <rect x="144" y="-36" width="12" height="48" fill="#2B4128"/>
      <rect x="108" y="12" width="48" height="12" fill="#263A25"/>
      <rect x="156" y="-24" width="12" height="48" fill="#34482A"/>
      <rect x="120" y="24" width="48" height="12" fill="#2B4128"/>
      <rect x="168" y="-12" width="12" height="48" fill="#2B4128"/>
      <rect x="132" y="36" width="48" height="12" fill="#2F462C"/>
      <rect x="180" y="0" width="12" height="48" fill="#2F462C"/>
      <rect x="144" y="48" width="48" height="12" fill="#2B4128"/>
      <rect x="192" y="12" width="12" height="48" fill="#2B4128"/>
      <rect x="156" y="60" width="48" height="12" fill="#2F462C"/>
      <rect x="204" y="24" width="12" height="48" fill="#2F462C"/>
      <rect x="168" y="72" width="48" height="12" fill="#2B4128"/>
      <rect x="216" y="36" width="12" height="48" fill="#2B4128"/>
      <rect x="180" y="84" width="48" height="12" fill="#2F462C"/>
      <rect x="228" y="48" width="12" height="48" fill="#2F462C"/>
      <rect x="192" y="96" width="48" height="12" fill="#2B4128"/>
      <rect x="240" y="60" width="12" height="48" fill="#2B4128"/>
      <rect x="204" y="108" width="48" height="12" fill="#2F462C"/>
      <rect x="252" y="72" width="12" height="48" fill="#2F462C"/>
      <rect x="216" y="120" width="48" height="12" fill="#2B4128"/>
      <rect x="264" y="84" width="12" height="48" fill="#2B4128"/>
      <rect x="228" y="132" width="48" height="12" fill="#263A25"/>
      <rect x="276" y="96" width="12" height="48" fill="#2F462C"/>
      <rect x="240" y="144" width="48" height="12" fill="#2B4128"/>
      <rect x="288" y="108" width="12" height="48" fill="#34482A"/>
      <rect x="252" y="156" width="48" height="12" fill="#2F462C"/>
      <rect x="300" y="120" width="12" height="48" fill="#263A25"/>
      <rect x="264" y="168" width="48" height="12" fill="#2B4128"/>
      <rect x="312" y="132" width="12" height="48" fill="#2B4128"/>
      <rect x="276" y="180" width="48" height="12" fill="#2F462C"/>
      <rect x="324" y="144" width="12" height="48" fill="#263A25"/>
      <rect x="288" y="192" width="48" height="12" fill="#2B4128"/>
      <rect x="336" y="156" width="12" height="48" fill="#2B4128"/>
      <rect x="300" y="204" width="48" height="12" fill="#2F462C"/>
      <rect x="348" y="168" width="12" height="48" fill="#263A25"/>
      <rect x="312" y="216" width="48" height="12" fill="#2B4128"/>
      <rect x="360" y="180" width="12" height="48" fill="#263A25"/>
      <rect x="324" y="228" width="48" height="12" fill="#2F462C"/>
      <rect x="372" y="192" width="12" height="48" fill="#2F462C"/>
      <rect x="336" y="240" width="48" height="12" fill="#2B4128"/>
      <rect x="384" y="204" width="12" height="48" fill="#2B4128"/>
      <rect x="348" y="252" width="48" height="12" fill="#2F462C"/>
      <rect x="396" y="216" width="12" height="48" fill="#2F462C"/>
      <rect x="360" y="264" width="48" height="12" fill="#2B4128"/>
      <rect x="408" y="228" width="12" height="48" fill="#2B4128"/>
      <rect x="372" y="276" width="48" height="12" fill="#2F462C"/>
      <rect x="420" y="240" width="12" height="48" fill="#34482A"/>
      <rect x="384" y="288" width="48" height="12" fill="#34482A"/>
      <rect x="432" y="252" width="12" height="48" fill="#2B4128"/>
      <rect x="396" y="300" width="48" height="12" fill="#2F462C"/>
      <rect x="444" y="264" width="12" height="48" fill="#2F462C"/>
      <rect x="408" y="312" width="48" height="12" fill="#2B4128"/>
      <rect x="456" y="276" width="12" height="48" fill="#2B4128"/>
      <rect x="420" y="324" width="48" height="12" fill="#2F462C"/>
      <rect x="468" y="288" width="12" height="48" fill="#2F462C"/>
      <rect x="432" y="336" width="48" height="12" fill="#34482A"/>
      <rect x="480" y="300" width="12" height="48" fill="#2B4128"/>
      <rect x="444" y="348" width="48" height="12" fill="#2F462C"/>
      <rect x="492" y="312" width="12" height="48" fill="#2F462C"/>
      <rect x="456" y="360" width="48" height="12" fill="#2B4128"/>
      <rect x="504" y="324" width="12" height="48" fill="#2B4128"/>
      <rect x="468" y="372" width="48" height="12" fill="#2F462C"/>
      <rect x="516" y="336" width="12" height="48" fill="#2F462C"/>
      <rect x="480" y="384" width="48" height="12" fill="#2B4128"/>
      <rect x="528" y="348" width="12" height="48" fill="#34482A"/>
      <rect x="492" y="396" width="48" height="12" fill="#2F462C"/>
      <rect x="540" y="360" width="12" height="48" fill="#2F462C"/>
      <rect x="504" y="408" width="48" height="12" fill="#2B4128"/>
      <rect x="552" y="372" width="12" height="48" fill="#34482A"/>
      <rect x="516" y="420" width="48" height="12" fill="#2F462C"/>
      <rect x="564" y="384" width="12" height="48" fill="#2F462C"/>
      <rect x="528" y="432" width="48" height="12" fill="#263A25"/>
      <rect x="540" y="444" width="48" height="12" fill="#2F462C"/>
      <rect x="552" y="456" width="48" height="12" fill="#34482A"/>
      <rect x="564" y="468" width="48" height="12" fill="#2F462C"/>
      <rect x="192" y="0" width="48" height="12" fill="#2B4128"/>
      <rect x="240" y="-36" width="12" height="48" fill="#2B4128"/>
      <rect x="204" y="12" width="48" height="12" fill="#34482A"/>
      <rect x="252" y="-24" width="12" height="48" fill="#2F462C"/>
      <rect x="216" y="24" width="48" height="12" fill="#2B4128"/>
      <rect x="264" y="-12" width="12" height="48" fill="#2B4128"/>
      <rect x="228" y="36" width="48" height="12" fill="#34482A"/>
      <rect x="276" y="0" width="12" height="48" fill="#2F462C"/>
      <rect x="240" y="48" width="48" height="12" fill="#2B4128"/>
      <rect x="288" y="12" width="12" height="48" fill="#2B4128"/>
      <rect x="252" y="60" width="48" height="12" fill="#2F462C"/>
      <rect x="300" y="24" width="12" height="48" fill="#2F462C"/>
      <rect x="264" y="72" width="48" height="12" fill="#2B4128"/>
      <rect x="312" y="36" width="12" height="48" fill="#263A25"/>
      <rect x="276" y="84" width="48" height="12" fill="#2F462C"/>
      <rect x="324" y="48" width="12" height="48" fill="#2F462C"/>
      <rect x="288" y="96" width="48" height="12" fill="#34482A"/>
      <rect x="336" y="60" width="12" height="48" fill="#2B4128"/>
      <rect x="300" y="108" width="48" height="12" fill="#263A25"/>
      <rect x="348" y="72" width="12" height="48" fill="#2F462C"/>
      <rect x="312" y="120" width="48" height="12" fill="#2B4128"/>
      <rect x="360" y="84" width="12" height="48" fill="#2B4128"/>
      <rect x="324" y="132" width="48" height="12" fill="#2F462C"/>
      <rect x="372" y="96" width="12" height="48" fill="#2F462C"/>
      <rect x="336" y="144" width="48" height="12" fill="#2B4128"/>
      <rect x="384" y="108" width="12" height="48" fill="#34482A"/>
      <rect x="348" y="156" width="48" height="12" fill="#2F462C"/>
      <rect x="396" y="120" width="12" height="48" fill="#2F462C"/>
      <rect x="360" y="168" width="48" height="12" fill="#2B4128"/>
      <rect x="408" y="132" width="12" height="48" fill="#2B4128"/>
      <rect x="372" y="180" width="48" height="12" fill="#2F462C"/>
      <rect x="420" y="144" width="12" height="48" fill="#2F462C"/>
      <rect x="384" y="192" width="48" height="12" fill="#34482A"/>
      <rect x="432" y="156" width="12" height="48" fill="#2B4128"/>
      <rect x="396" y="204" width="48" height="12" fill="#2F462C"/>
      <rect x="444" y="168" width="12" height="48" fill="#2F462C"/>
      <rect x="408" y="216" width="48" height="12" fill="#2B4128"/>
      <rect x="456" y="180" width="12" height="48" fill="#2B4128"/>
      <rect x="420" y="228" width="48" height="12" fill="#2F462C"/>
      <rect x="468" y="192" width="12" height="48" fill="#2F462C"/>
      <rect x="432" y="240" width="48" height="12" fill="#2B4128"/>
      <rect x="480" y="204" width="12" height="48" fill="#2B4128"/>
      <rect x="444" y="252" width="48" height="12" fill="#34482A"/>
      <rect x="492" y="216" width="12" height="48" fill="#2F462C"/>
      <rect x="456" y="264" width="48" height="12" fill="#2B4128"/>
      <rect x="504" y="228" width="12" height="48" fill="#2B4128"/>
      <rect x="468" y="276" width="48" height="12" fill="#2F462C"/>
      <rect x="516" y="240" width="12" height="48" fill="#2F462C"/>
      <rect x="480" y="288" width="48" height="12" fill="#2B4128"/>
      <rect x="528" y="252" width="12" height="48" fill="#263A25"/>
      <rect x="492" y="300" width="48" height="12" fill="#2F462C"/>
      <rect x="540" y="264" width="12" height="48" fill="#2F462C"/>
      <rect x="504" y="312" width="48" height="12" fill="#2B4128"/>
      <rect x="552" y="276" width="12" height="48" fill="#2B4128"/>
      <rect x="516" y="324" width="48" height="12" fill="#34482A"/>
      <rect x="564" y="288" width="12" height="48" fill="#2F462C"/>
      <rect x="528" y="336" width="48" height="12" fill="#2B4128"/>
      <rect x="540" y="348" width="48" height="12" fill="#2F462C"/>
      <rect x="552" y="360" width="48" height="12" fill="#2B4128"/>
      <rect x="564" y="372" width="48" height="12" fill="#2F462C"/>
      <rect x="288" y="0" width="48" height="12" fill="#2B4128"/>
      <rect x="336" y="-36" width="12" height="48" fill="#2B4128"/>
      <rect x="300" y="12" width="48" height="12" fill="#2F462C"/>
      <rect x="348" y="-24" width="12" height="48" fill="#2F462C"/>
      <rect x="312" y="24" width="48" height="12" fill="#2B4128"/>
      <rect x="360" y="-12" width="12" height="48" fill="#2B4128"/>
      <rect x="324" y="36" width="48" height="12" fill="#263A25"/>
      <rect x="372" y="0" width="12" height="48" fill="#2F462C"/>
      <rect x="336" y="48" width="48" height="12" fill="#263A25"/>
      <rect x="384" y="12" width="12" height="48" fill="#2B4128"/>
      <rect x="348" y="60" width="48" height="12" fill="#263A25"/>
      <rect x="396" y="24" width="12" height="48" fill="#2F462C"/>
      <rect x="360" y="72" width="48" height="12" fill="#2B4128"/>
      <rect x="408" y="36" width="12" height="48" fill="#34482A"/>
      <rect x="372" y="84" width="48" height="12" fill="#2F462C"/>
      <rect x="420" y="48" width="12" height="48" fill="#2F462C"/>
      <rect x="384" y="96" width="48" height="12" fill="#2B4128"/>
      <rect x="432" y="60" width="12" height="48" fill="#2B4128"/>
      <rect x="396" y="108" width="48" height="12" fill="#2F462C"/>
      <rect x="444" y="72" width="12" height="48" fill="#263A25"/>
      <rect x="408" y="120" width="48" height="12" fill="#2B4128"/>
      <rect x="456" y="84" width="12" height="48" fill="#2B4128"/>
      <rect x="420" y="132" width="48" height="12" fill="#34482A"/>
      <rect x="468" y="96" width="12" height="48" fill="#34482A"/>
      <rect x="432" y="144" width="48" height="12" fill="#2B4128"/>
      <rect x="480" y="108" width="12" height="48" fill="#2B4128"/>
      <rect x="444" y="156" width="48" height="12" fill="#2F462C"/>
      <rect x="492" y="120" width="12" height="48" fill="#2F462C"/>
      <rect x="456" y="168" width="48" height="12" fill="#2B4128"/>
      <rect x="504" y="132" width="12" height="48" fill="#2B4128"/>
      <rect x="468" y="180" width="48" height="12" fill="#2F462C"/>
      <rect x="516" y="144" width="12" height="48" fill="#2F462C"/>
      <rect x="480" y="192" width="48" height="12" fill="#2B4128"/>
      <rect x="528" y="156" width="12" height="48" fill="#34482A"/>
      <rect x="492" y="204" width="48" height="12" fill="#2F462C"/>
      <rect x="540" y="168" width="12" height="48" fill="#263A25"/>
      <rect x="504" y="216" width="48" height="12" fill="#2B4128"/>
      <rect x="552" y="180" width="12" height="48" fill="#2B4128"/>
      <rect x="516" y="228" width="48" height="12" fill="#2F462C"/>
      <rect x="564" y="192" width="12" height="48" fill="#2F462C"/>
      <rect x="528" y="240" width="48" height="12" fill="#2B4128"/>
      <rect x="540" y="252" width="48" height="12" fill="#2F462C"/>
      <rect x="552" y="264" width="48" height="12" fill="#2B4128"/>
      <rect x="564" y="276" width="48" height="12" fill="#34482A"/>
      <rect x="384" y="0" width="48" height="12" fill="#2B4128"/>
      <rect x="432" y="-36" width="12" height="48" fill="#263A25"/>
      <rect x="396" y="12" width="48" height="12" fill="#2F462C"/>
      <rect x="444" y="-24" width="12" height="48" fill="#2F462C"/>
      <rect x="408" y="24" width="48" height="12" fill="#263A25"/>
      <rect x="456" y="-12" width="12" height="48" fill="#2B4128"/>
      <rect x="420" y="36" width="48" height="12" fill="#34482A"/>
      <rect x="468" y="0" width="12" height="48" fill="#2F462C"/>
      <rect x="432" y="48" width="48" height="12" fill="#263A25"/>
      <rect x="480" y="12" width="12" height="48" fill="#2B4128"/>
      <rect x="444" y="60" width="48" height="12" fill="#2F462C"/>
      <rect x="492" y="24" width="12" height="48" fill="#2F462C"/>
      <rect x="456" y="72" width="48" height="12" fill="#2B4128"/>
      <rect x="504" y="36" width="12" height="48" fill="#2B4128"/>
      <rect x="468" y="84" width="48" height="12" fill="#34482A"/>
      <rect x="516" y="48" width="12" height="48" fill="#2F462C"/>
      <rect x="480" y="96" width="48" height="12" fill="#34482A"/>
      <rect x="528" y="60" width="12" height="48" fill="#2B4128"/>
      <rect x="492" y="108" width="48" height="12" fill="#2F462C"/>
      <rect x="540" y="72" width="12" height="48" fill="#2F462C"/>
      <rect x="504" y="120" width="48" height="12" fill="#2B4128"/>
      <rect x="552" y="84" width="12" height="48" fill="#34482A"/>
      <rect x="516" y="132" width="48" height="12" fill="#2F462C"/>
      <rect x="564" y="96" width="12" height="48" fill="#2F462C"/>
      <rect x="528" y="144" width="48" height="12" fill="#2B4128"/>
      <rect x="540" y="156" width="48" height="12" fill="#34482A"/>
      <rect x="552" y="168" width="48" height="12" fill="#34482A"/>
      <rect x="564" y="180" width="48" height="12" fill="#2F462C"/>
      <rect x="480" y="0" width="48" height="12" fill="#2B4128"/>
      <rect x="528" y="-36" width="12" height="48" fill="#263A25"/>
      <rect x="492" y="12" width="48" height="12" fill="#2F462C"/>
      <rect x="540" y="-24" width="12" height="48" fill="#2F462C"/>
      <rect x="504" y="24" width="48" height="12" fill="#2B4128"/>
      <rect x="552" y="-12" width="12" height="48" fill="#34482A"/>
      <rect x="516" y="36" width="48" height="12" fill="#2F462C"/>
      <rect x="564" y="0" width="12" height="48" fill="#2F462C"/>
      <rect x="528" y="48" width="48" height="12" fill="#2B4128"/>
      <rect x="540" y="60" width="48" height="12" fill="#2F462C"/>
      <rect x="552" y="72" width="48" height="12" fill="#2B4128"/>
      <rect x="564" y="84" width="48" height="12" fill="#2F462C"/>
      </g>
    </pattern>
  </defs>
  <rect width="100%" height="100%" fill="url(#herringbone)"/>
</svg>
